<svg viewBox="0 0 342.2 102.1" xmlns="http://www.w3.org/2000/svg">
  <path
    fill="#9891ff"
    d="M9.7,40v-.2c0-1.1,0-2.4.1-3.4.1-1.3.4-2.7,1.3-4.2.9-1.5,2-2.5,3-3.2.9-.6,1.9-1.2,2.9-1.8,0,0,.1,0,.2,0l27.8-15.9c.1,0,.2-.1.3-.2.2-.1.4-.2.6-.3,0-1.4,0-4.2,0-4.2-.2-3.4-.6-5.3-2.2-6.2-2.2-1.3-5.3.4-11.3,3.8L4.6,20.1c-2.2,1.3-3.4,1.9-4,3s-.6,2.3-.6,4.9v34.8c0,7,0,10.5,2.3,11.8.6.3,1.2.5,1.9.4,1.4,0,3.2-.8,5.6-2.2v-32.9Z"
  />
  <path
    fill="#7775ff"
    d="M62.7,24.1c-.1,0-.2.1-.3.2-.1,0-.2.1-.3.2,0,0-.1,0-.2,0s-.1,0-.2,0l-8.8,5-5.7,3.2-13.4,7.6s0,0,0,0c0,0,0,0,0,0-1,.6-2,1.1-2.9,1.8-1,.7-2.1,1.7-3,3.2-.9,1.5-1.1,3-1.3,4.2-.1,1.1-.1,2.3-.1,3.4v33.1c-2.4,1.3-4.2,2.1-5.6,2.2-.7,0-1.3-.1-1.9-.4-2.1-1.2-2.2-4.3-2.3-10.4v-36.2c0-2.6,0-3.8.6-4.9s1.7-1.7,3.9-2.9h0l25.9-14.8,1.9-1.1h.1c1.4-.9,2.6-1.6,3.7-2.1,3.6-1.9,5.8-2.7,7.5-1.7,1.6.9,2,2.8,2.2,6.2,0,0,.2,3.7.2,4.2Z"
  />
  <path
    fill="#535ae8"
    d="M79.4,38v-2.3c0-.7,0-1.4,0-2-.2-3.4-.6-5.3-2.2-6.2-1.7-1-3.9-.2-7.5,1.7-1.1.6-2.4,1.3-3.8,2.1l-1.9,1.1-9.7,5.5-5.7,3.2-10.5,6c-2.2,1.3-3.4,1.9-4,3s-.6,2.3-.6,4.9v36.2c0,6.1.2,9.2,2.3,10.4.6.3,1.2.5,1.9.4.3,0,.5,0,.8-.1,2-.4,4.7-2,8.6-4.3l27.8-16.3c2.2-1.3,3.3-1.9,3.9-3,.5-.9.6-2,.6-4v-36.5Z"
  />
  <path
    fill="#10122b"
    d="M313,89.1v-38.4c0-4.8,1.3-8.5,4-11.1,2.7-2.7,6.5-4.1,11.2-4.1h13.9v11.4h-11.6c-1.3,0-2.3.4-3.2,1.3-.8.8-1.3,1.8-1.3,3.2v37.8h-13.1Z"
  />
  <path
    fill="#10122b"
    d="M279.2,79.1c3.1,0,5.8-.7,8.1-2.2,2.3-1.5,4.1-3.6,5.4-6.1,1.3-2.5,1.9-5.4,1.9-8.5s-.6-6-1.9-8.5c-1.3-2.5-3-4.5-5.4-6-2.3-1.5-5-2.3-8.1-2.3s-5.9.8-8.2,2.3c-2.2,1.5-4,3.5-5.3,6-1.3,2.5-1.9,5.4-1.9,8.5s.6,6,1.9,8.5c1.3,2.5,3,4.6,5.3,6.1,2.3,1.5,5,2.2,8.2,2.2ZM279.2,90.4c-5.5,0-10.5-1.2-14.8-3.7-4.3-2.5-7.7-5.9-10.2-10.1-2.5-4.3-3.7-9-3.7-14.3s1.2-10,3.7-14.2c2.5-4.3,5.9-7.6,10.2-10.1,4.3-2.5,9.3-3.8,14.8-3.8s10.4,1.3,14.7,3.8c4.3,2.5,7.7,5.8,10.2,10,2.5,4.2,3.8,9,3.8,14.3s-1.3,10-3.8,14.3c-2.5,4.2-5.9,7.6-10.2,10.1-4.3,2.5-9.2,3.7-14.7,3.7Z"
  />
  <rect
    fill="#10122b"
    x="231.7"
    y="12.4"
    width="13.2"
    height="76.7"
  />
  <path
    fill="#10122b"
    d="M216.6,28.5c-2.3,0-4.3-.8-6-2.4-1.6-1.7-2.4-3.7-2.4-6s.8-4.3,2.4-5.9c1.7-1.7,3.7-2.5,6-2.5s4.2.8,5.9,2.5c1.7,1.6,2.5,3.6,2.5,5.9s-.8,4.3-2.5,6c-1.7,1.6-3.6,2.4-5.9,2.4ZM209.9,89.1v-53.6h13.4v53.6h-13.4Z"
  />
  <path
    fill="#10122b"
    d="M173.2,79.1c3,0,5.6-.7,7.8-2.2,2.2-1.5,3.9-3.6,5-6.1,1.2-2.6,1.8-5.5,1.8-8.6s-.6-6-1.8-8.4c-1.1-2.5-2.8-4.5-5-6-2.2-1.5-4.8-2.3-7.8-2.3s-5.7.8-8,2.3c-2.2,1.5-3.9,3.5-5,6-1.2,2.5-1.8,5.4-1.8,8.5s.6,5.9,1.7,8.5c1.2,2.5,2.9,4.6,5.2,6.1,2.2,1.5,4.9,2.2,8,2.2ZM169.5,90.4c-5,0-9.3-1.3-13-3.8-3.6-2.5-6.5-5.9-8.5-10.1-2-4.3-2.9-9-2.9-14.1s1.1-10,3.4-14.3c2.2-4.3,5.5-7.6,9.8-10.1,4.3-2.5,9.4-3.8,15.2-3.8s11,1.3,15.1,3.8c4.1,2.5,7.3,5.9,9.5,10.2,2.2,4.2,3.3,8.9,3.3,14.1v26.8h-13.2v-9.5h-.2c-1.1,2-2.4,3.7-4.1,5.4-1.6,1.6-3.6,2.9-5.9,3.9-2.3,1-5.1,1.5-8.3,1.5Z"
  />
  <path
    fill="#10122b"
    d="M106.1,46.8v-11.4h38.3v11.4h-38.3ZM130.5,89.1c-4.8,0-8.5-1.4-11.2-4.1-2.7-2.7-4-6.4-4-11.1V22h13.2v51.3c0,1.3.4,2.4,1.2,3.3.8.8,1.9,1.2,3.3,1.2h11.4v11.4h-13.8Z"
  />
</svg>
